<svg width="95" height="95" viewBox="0 0 95 95" fill="none" xmlns="http://www.w3.org/2000/svg">
<g clip-path="url(#clip0_1_20)">
<path d="M57.475 13.7133H55.5798L50.2265 83.125H44.1655L39.1827 13.7133H37.2875V11.875H47.177V13.7133H45.2818L49.2599 74.6771L53.6845 13.7133H51.7512V11.875H57.475V13.7133Z" fill="#423832"/>
<path d="M32.0625 72.884C32.0625 75.6936 31.0769 78.1019 29.108 80.1111C27.1391 82.1204 24.7594 83.125 21.9687 83.125C19.2066 83.125 16.834 82.1204 14.8509 80.1111C12.8677 78.1019 11.875 75.6936 11.875 72.884V22.116C11.875 19.3064 12.8677 16.8981 14.8509 14.8889C16.834 12.8796 19.2066 11.875 21.9687 11.875C24.7594 11.875 27.1391 12.8796 29.108 14.8889C31.0769 16.8981 32.0625 19.3064 32.0625 22.116V33.4352H25.3341V17.7056C25.3341 16.5965 25.0064 15.6465 24.3485 14.8628C23.693 14.079 22.8997 13.6871 21.9687 13.6871C21.0377 13.6871 20.2445 14.079 19.589 14.8628C18.9335 15.6465 18.6034 16.5941 18.6034 17.7056V77.292C18.6034 78.4035 18.9311 79.3511 19.589 80.1349C20.2469 80.9186 21.0377 81.3105 21.9687 81.3105C22.8997 81.3105 23.693 80.9186 24.3485 80.1349C25.004 79.3511 25.3341 78.4035 25.3341 77.292V61.5624H32.0625V72.884Z" fill="#423832"/>
<path d="M82.8875 72.884C82.8875 75.7269 81.9233 78.1446 79.9948 80.1373C78.0663 82.1299 75.6722 83.1274 72.8151 83.1274C69.9295 83.1274 67.5212 82.1299 65.5927 80.1373C63.6642 78.1446 62.7 75.7269 62.7 72.884V61.5648H69.73V77.2944C69.73 79.9734 70.7584 81.3129 72.8151 81.3129C74.8434 81.3129 75.8575 79.9734 75.8575 77.2944V65.0916C75.8575 61.7595 75.1569 58.8359 73.758 56.3208L64.9705 40.6885C63.4553 37.9763 62.7 34.9719 62.7 31.673V22.116C62.7 19.2731 63.6642 16.8554 65.5927 14.8628C67.5212 12.8725 69.9295 11.875 72.8151 11.875C75.6722 11.875 78.0663 12.8725 79.9948 14.8651C81.9233 16.8578 82.8875 19.2755 82.8875 22.116V33.4353H75.8575V17.7056C75.8575 15.0266 74.8434 13.6871 72.8151 13.6871C70.7584 13.6871 69.73 15.0266 69.73 17.7056V29.4666C69.73 32.7679 70.4306 35.6725 71.8295 38.19L80.617 53.8223C82.1323 56.5345 82.8875 59.5555 82.8875 62.8876V72.884V72.884Z" fill="#423832"/>
</g>
<defs>
<clipPath id="clip0_1_20">
<rect width="95" height="95" fill="white"/>
</clipPath>
</defs>
</svg>
